<svg xmlns="http://www.w3.org/2000/svg" viewBox="0 0 387.05 332.59"><defs><style>.cls-1{fill:none;}.cls-2{fill:#00a99d;}.cls-3{fill:#666;}.cls-4{fill:gray;}.cls-5{fill:#e6e6e6;}</style></defs><title>Logo_Teal</title><g id="Calque_2" data-name="Calque 2"><g id="Calque_1-2" data-name="Calque 1"><path class="cls-1" d="M37.26,130.47l.31-.36" transform="translate(-0.25 -0.25)"/><path class="cls-2" d="M357.07,121.61c6,22,33,150,30,181l-234,3s-4.65-11.5-6-15c-2-5.15-5-13-7-18a209.17,209.17,0,0,1-9-32c-2-11.6-.22-35.56-3-47-.79-3.26-4.36-9.07-6-12-3.83-6.85-12-18-17-25-5.48-7.68-15-39.72-24-43-6-2.18-31.67,8.45-37,12-2.61,1.74-6,4.25-6.81,4.86h0l-.18.13a85,85,0,0,1,.5-45.5c7.89-26.74,30.82-41,57.5-57.5,10.21-6.29,28-17.32,57-23,48.5-9.5,90.87-2.74,124,13C316.07,36.61,349.83,95.07,357.07,121.61Z" transform="translate(-0.25 -0.25)"/><path class="cls-3" d="M147.07,290.61c1.35,3.5,6,15,6,15a153.13,153.13,0,0,1-99-46s18.62,3.31,28.5-4.5c4.44-3.51,7.42-8.41,9-11,2.55-4.18,3.71-7.52,6-14,3.38-9.54,4-14.36,8-24,2-4.76,3.32-7.47,6-10,6.35-6,16.5-2.5,16.5-2.5,2.78,11.44,1,35.4,3,47a209.17,209.17,0,0,0,9,32C142.07,277.61,145.09,285.46,147.07,290.61Z" transform="translate(-0.25 -0.25)"/><path class="cls-4" d="M122.07,181.61c1.64,2.93,5.21,8.74,6,12,0,0-10.15-3.51-16.5,2.5-2.68,2.53-4,5.24-6,10-4,9.64-4.62,14.46-8,24-2.29,6.48-3.45,9.82-6,14-1.58,2.59-4.56,7.49-9,11-9.88,7.81-28.5,4.5-28.5,4.5a105.5,105.5,0,0,0,0,36c4.24,23.94,15.25,35.23,13,37-4.11,3.23-47.94-28.87-62.5-82.5a114.79,114.79,0,0,1-4-22C-3,182.5,24.09,145.93,37.25,130.48h0c.82-.61,4.2-3.12,6.81-4.86,5.33-3.55,31-14.18,37-12,9,3.28,18.52,35.32,24,43C110.07,163.61,118.24,174.76,122.07,181.61Z" transform="translate(-0.25 -0.25)"/><ellipse class="cls-3" cx="75.07" cy="127.11" rx="6.49" ry="7.95" transform="matrix(0.57, -0.82, 0.82, 0.57, -72.38, 115.58)"/><path class="cls-5" d="M245.57,92.11c2.33,11-14.64,22.65-21,27-18.09,12.4-36,12.91-43,13-3.54.06-15.08,0-26-6a11.32,11.32,0,0,1-4-3c-6.88-8.83,5-27.85,7-31,4.93-7.87,12.47-19.9,27-24,13.54-3.81,24.77,1.64,42,10C238.43,83.39,244.35,86.37,245.57,92.11Z" transform="translate(-0.25 -0.25)"/><ellipse cx="192.07" cy="101.61" rx="23.91" ry="16.45" transform="translate(-22.65 136.27) rotate(-37.13)"/></g></g></svg>